<svg width="80" height="80" viewBox="0 0 80 80" fill="none" xmlns="http://www.w3.org/2000/svg">
<g clip-path="url(#clip0_6_2)">
<path d="M55 30C55 33.9782 53.4196 37.7936 50.6066 40.6066C47.7936 43.4196 43.9782 45 40 45C36.0218 45 32.2064 43.4196 29.3934 40.6066C26.5804 37.7936 25 33.9782 25 30C25 26.0218 26.5804 22.2064 29.3934 19.3934C32.2064 16.5804 36.0218 15 40 15C43.9782 15 47.7936 16.5804 50.6066 19.3934C53.4196 22.2064 55 26.0218 55 30Z" fill="#F5F5F5"/>
<path fill-rule="evenodd" clip-rule="evenodd" d="M0 45C0 34.3913 4.21427 24.2172 11.7157 16.7157C19.2172 9.21427 29.3913 5 40 5C50.6087 5 60.7828 9.21427 68.2843 16.7157C75.7857 24.2172 80 34.3913 80 45C80 55.6087 75.7857 65.7828 68.2843 73.2843C60.7828 80.7857 50.6087 85 40 85C29.3913 85 19.2172 80.7857 11.7157 73.2843C4.21427 65.7828 0 55.6087 0 45ZM40 10C33.4089 10.0004 26.9518 11.8618 21.372 15.3701C15.7922 18.8785 11.3164 23.8911 8.45982 29.831C5.60323 35.7709 4.48193 42.3967 5.22499 48.9458C5.96805 55.4949 8.54527 61.701 12.66 66.85C16.21 61.13 24.025 55 40 55C55.975 55 63.785 61.125 67.34 66.85C71.4547 61.701 74.032 55.4949 74.775 48.9458C75.5181 42.3967 74.3968 35.7709 71.5402 29.831C68.6836 23.8911 64.2078 18.8785 58.628 15.3701C53.0482 11.8618 46.5911 10.0004 40 10Z" fill="#F5F5F5"/>
</g>
<defs>
<clipPath id="clip0_6_2">
<rect width="80" height="80" fill="white"/>
</clipPath>
</defs>
</svg>
